<svg xmlns="http://www.w3.org/2000/svg" xmlns:xlink="http://www.w3.org/1999/xlink" width="449" zoomAndPan="magnify" viewBox="0 0 336.75 272.999983" height="364" preserveAspectRatio="xMidYMid meet" version="1.0"><defs><g/><clipPath id="6821686915"><path d="M 78.097656 80 L 258 80 L 258 179.203125 L 78.097656 179.203125 Z M 78.097656 80 " clip-rule="nonzero"/></clipPath><clipPath id="622133a04a"><path d="M 83 0.101562 L 243 0.101562 L 243 59 L 83 59 Z M 83 0.101562 " clip-rule="nonzero"/></clipPath><clipPath id="811f0c3cbd"><path d="M 282 21 L 326.09375 21 L 326.09375 78 L 282 78 Z M 282 21 " clip-rule="nonzero"/></clipPath><clipPath id="9310c4d5f7"><path d="M 91.910156 13.070312 L 241.800781 13.070312 L 241.800781 162.957031 L 91.910156 162.957031 Z M 91.910156 13.070312 " clip-rule="nonzero"/></clipPath><clipPath id="f81cce9a83"><path d="M 166 13.070312 L 241.800781 13.070312 L 241.800781 162.957031 L 166 162.957031 Z M 166 13.070312 " clip-rule="nonzero"/></clipPath></defs><path fill="#84249f" d="M 242.527344 40.964844 L 220.382812 40.964844 C 225.152344 46.128906 229.171875 51.988281 232.25 58.394531 L 251.367188 58.394531 C 249.03125 52.1875 246.101562 46.378906 242.527344 40.964844 Z M 242.527344 40.964844 " fill-opacity="1" fill-rule="nonzero"/><g clip-path="url(#6821686915)"><path fill="#84249f" d="M 167.40625 179.292969 C 118.003906 179.292969 77.832031 139.125 77.832031 89.722656 C 77.832031 86.695312 77.984375 83.714844 78.28125 80.785156 L 95.957031 80.785156 C 95.957031 80.835938 95.957031 80.886719 95.957031 80.933594 C 95.609375 83.816406 95.410156 86.742188 95.410156 89.722656 C 95.410156 92.703125 95.609375 95.632812 95.957031 98.511719 C 96.898438 106.457031 99.183594 114.003906 102.511719 120.90625 C 105.640625 127.359375 109.660156 133.269531 114.425781 138.480469 C 127.585938 152.78125 146.453125 161.769531 167.40625 161.769531 C 207.125 161.769531 239.449219 129.445312 239.449219 89.722656 C 239.449219 86.695312 239.25 83.714844 238.902344 80.785156 L 256.578125 80.785156 C 256.878906 83.714844 257.027344 86.695312 257.027344 89.722656 C 257.027344 139.078125 216.808594 179.292969 167.40625 179.292969 Z M 167.40625 179.292969 " fill-opacity="1" fill-rule="nonzero"/></g><g clip-path="url(#622133a04a)"><path fill="#84249f" d="M 102.511719 58.492188 L 83.445312 58.492188 C 96.105469 24.429688 128.976562 0.101562 167.40625 0.101562 C 198.835938 0.101562 226.539062 16.386719 242.527344 40.964844 L 220.382812 40.964844 C 207.226562 26.664062 188.359375 17.679688 167.40625 17.679688 C 146.453125 17.679688 127.585938 26.664062 114.425781 40.964844 C 109.660156 46.128906 105.640625 52.039062 102.511719 58.492188 Z M 102.511719 58.492188 " fill-opacity="1" fill-rule="nonzero"/></g><path fill="#b577c6" d="M 214.871094 98.460938 L 95.957031 98.460938 C 95.609375 95.582031 95.410156 92.652344 95.410156 89.671875 C 95.410156 86.695312 95.609375 83.765625 95.957031 80.886719 L 214.871094 80.886719 Z M 214.871094 98.460938 " fill-opacity="1" fill-rule="nonzero"/><path fill="#b577c6" d="M 273.261719 58.492188 L 102.511719 58.492188 C 105.640625 52.039062 109.660156 46.128906 114.425781 40.914062 L 273.261719 40.914062 Z M 273.261719 58.492188 " fill-opacity="1" fill-rule="nonzero"/><path fill="#b577c6" d="M 191.585938 138.429688 L 114.476562 138.429688 C 109.710938 133.21875 105.640625 127.308594 102.558594 120.855469 L 191.585938 120.855469 Z M 191.585938 138.429688 " fill-opacity="1" fill-rule="nonzero"/><g clip-path="url(#811f0c3cbd)"><path fill="#b577c6" d="M 326.09375 49.804688 L 282.746094 21.898438 L 282.746094 77.707031 Z M 326.09375 49.804688 " fill-opacity="1" fill-rule="nonzero"/></g><g fill="#992b91" fill-opacity="1"><g transform="translate(86.577367, 222.871999)"><g><path d="M 0.328125 -27.390625 L 0.328125 -34.234375 L 24.40625 -34.234375 L 24.40625 -27.390625 L 16.265625 -27.390625 L 16.265625 0 L 8.46875 0 L 8.46875 -27.390625 Z M 0.328125 -27.390625 "/></g></g></g><g fill="#992b91" fill-opacity="1"><g transform="translate(116.332636, 222.871999)"><g><path d="M 22.078125 -34.234375 L 22.078125 -27.390625 L 10.296875 -27.390625 L 10.296875 -20.578125 L 21.578125 -20.578125 L 21.578125 -13.734375 L 10.296875 -13.734375 L 10.296875 -6.84375 L 22.078125 -6.84375 L 22.078125 0 L 2.484375 0 L 2.484375 -34.234375 Z M 22.078125 -34.234375 "/></g></g></g><g fill="#992b91" fill-opacity="1"><g transform="translate(145.423942, 222.871999)"><g><path d="M 17.390625 -34.234375 L 17.390625 -9.671875 C 17.390625 -6.316406 16.46875 -3.757812 14.625 -2 C 12.789062 -0.25 10.15625 0.625 6.71875 0.625 C 5.8125 0.625 4.914062 0.507812 4.03125 0.28125 C 3.144531 0.0625 2.394531 -0.203125 1.78125 -0.515625 C 1.175781 -0.835938 0.628906 -1.160156 0.140625 -1.484375 C -0.335938 -1.816406 -0.6875 -2.097656 -0.90625 -2.328125 L -1.28125 -2.65625 L 1.203125 -9.171875 C 2.835938 -7.617188 4.316406 -6.84375 5.640625 -6.84375 C 6.828125 -6.84375 7.78125 -7.238281 8.5 -8.03125 C 9.226562 -8.820312 9.59375 -10.03125 9.59375 -11.65625 L 9.59375 -34.234375 Z M 17.390625 -34.234375 "/></g></g></g><g fill="#992b91" fill-opacity="1"><g transform="translate(169.908974, 222.871999)"><g><path d="M 10.296875 -34.234375 L 10.296875 0 L 2.484375 0 L 2.484375 -34.234375 Z M 10.296875 -34.234375 "/></g></g></g><g fill="#992b91" fill-opacity="1"><g transform="translate(187.712842, 222.871999)"><g><path d="M 0.328125 -27.390625 L 0.328125 -34.234375 L 24.40625 -34.234375 L 24.40625 -27.390625 L 16.265625 -27.390625 L 16.265625 0 L 8.46875 0 L 8.46875 -27.390625 Z M 0.328125 -27.390625 "/></g></g></g><g fill="#992b91" fill-opacity="1"><g transform="translate(217.468114, 222.871999)"><g><path d="M 19.875 -34.234375 L 33.703125 0 L 25.3125 0 L 22.78125 -6.84375 L 9.75 -6.84375 L 7.21875 0 L -1.15625 0 L 12.65625 -34.234375 Z M 20.125 -13.6875 L 16.3125 -23.65625 L 16.21875 -23.65625 L 12.40625 -13.6875 Z M 20.125 -13.6875 "/></g></g></g><g fill="#992b91" fill-opacity="1"><g transform="translate(42.847523, 255.156747)"><g><path d="M 20.0625 -21.546875 L 23.25 -21.546875 L 23.25 0 L 20.09375 0 L 20.09375 -16.53125 L 13.796875 -7.875 L 11.328125 -7.875 L 5.015625 -16.53125 L 5.015625 0 L 1.828125 0 L 1.828125 -21.546875 L 5.015625 -21.546875 L 12.546875 -11.1875 Z M 20.0625 -21.546875 "/></g></g></g><g fill="#992b91" fill-opacity="1"><g transform="translate(71.594517, 255.156747)"><g><path d="M 3.796875 0 L 0.328125 0 L 9.296875 -21.546875 L 12.796875 -21.546875 L 21.765625 0 L 18.328125 0 L 15.5 -6.75 L 6.59375 -6.75 Z M 7.8125 -9.671875 L 14.28125 -9.671875 L 11.0625 -17.4375 Z M 7.8125 -9.671875 "/></g></g></g><g fill="#992b91" fill-opacity="1"><g transform="translate(97.515597, 255.156747)"><g><path d="M 19.484375 0 L 15.5 0 L 8.71875 -9.296875 L 4.953125 -9.296875 L 4.953125 0 L 1.765625 0 L 1.765625 -21.546875 L 10.515625 -21.546875 C 11.367188 -21.546875 12.175781 -21.382812 12.9375 -21.0625 C 13.695312 -20.738281 14.351562 -20.300781 14.90625 -19.75 C 15.46875 -19.207031 15.910156 -18.566406 16.234375 -17.828125 C 16.554688 -17.085938 16.71875 -16.289062 16.71875 -15.4375 C 16.71875 -14.726562 16.601562 -14.054688 16.375 -13.421875 C 16.15625 -12.796875 15.847656 -12.226562 15.453125 -11.71875 C 15.054688 -11.21875 14.582031 -10.78125 14.03125 -10.40625 C 13.488281 -10.03125 12.894531 -9.753906 12.25 -9.578125 Z M 10.515625 -12.28125 C 10.941406 -12.28125 11.347656 -12.363281 11.734375 -12.53125 C 12.117188 -12.707031 12.445312 -12.9375 12.71875 -13.21875 C 12.988281 -13.5 13.203125 -13.835938 13.359375 -14.234375 C 13.523438 -14.628906 13.609375 -15.050781 13.609375 -15.5 C 13.609375 -15.945312 13.523438 -16.363281 13.359375 -16.75 C 13.203125 -17.132812 12.988281 -17.472656 12.71875 -17.765625 C 12.445312 -18.054688 12.117188 -18.285156 11.734375 -18.453125 C 11.347656 -18.628906 10.941406 -18.71875 10.515625 -18.71875 L 4.953125 -18.71875 L 4.953125 -12.25 Z M 10.515625 -12.28125 "/></g></g></g><g fill="#992b91" fill-opacity="1"><g transform="translate(121.12734, 255.156747)"><g><path d="M 10.359375 -11.546875 L 20.71875 0.03125 L 16.4375 0.03125 L 8.265625 -9.453125 L 4.859375 -6.046875 L 4.859375 0 L 1.703125 0 L 1.703125 -21.546875 L 4.859375 -21.546875 L 4.859375 -9.96875 L 7.234375 -12.484375 L 16.203125 -21.546875 L 20.359375 -21.546875 Z M 10.359375 -11.546875 "/></g></g></g><g fill="#992b91" fill-opacity="1"><g transform="translate(146.076062, 255.156747)"><g><path d="M 14.859375 -21.546875 L 14.859375 -18.6875 L 4.859375 -18.6875 L 4.859375 -12.828125 L 13.765625 -12.828125 L 13.765625 -9.875 L 4.859375 -9.875 L 4.859375 -2.953125 L 14.859375 -2.953125 L 14.859375 0 L 1.703125 0 L 1.703125 -21.546875 Z M 14.859375 -21.546875 "/></g></g></g><g fill="#992b91" fill-opacity="1"><g transform="translate(166.436475, 255.156747)"><g><path d="M 5.984375 -18.6875 L 0.15625 -18.6875 L 0.15625 -21.546875 L 15.015625 -21.546875 L 15.015625 -18.6875 L 9.140625 -18.6875 L 9.140625 0 L 5.984375 0 Z M 5.984375 -18.6875 "/></g></g></g><g fill="#992b91" fill-opacity="1"><g transform="translate(185.976471, 255.156747)"><g><path d="M 10.390625 -21.546875 C 11.242188 -21.546875 12.046875 -21.382812 12.796875 -21.0625 C 13.546875 -20.738281 14.195312 -20.300781 14.75 -19.75 C 15.3125 -19.207031 15.753906 -18.566406 16.078125 -17.828125 C 16.398438 -17.085938 16.5625 -16.289062 16.5625 -15.4375 C 16.5625 -14.582031 16.398438 -13.78125 16.078125 -13.03125 C 15.753906 -12.28125 15.3125 -11.628906 14.75 -11.078125 C 14.195312 -10.535156 13.546875 -10.109375 12.796875 -9.796875 C 12.046875 -9.484375 11.242188 -9.328125 10.390625 -9.328125 L 4.796875 -9.296875 L 4.796875 0 L 1.640625 0 L 1.640625 -21.546875 Z M 10.390625 -12.28125 C 10.816406 -12.28125 11.21875 -12.363281 11.59375 -12.53125 C 11.96875 -12.707031 12.296875 -12.9375 12.578125 -13.21875 C 12.859375 -13.5 13.082031 -13.835938 13.25 -14.234375 C 13.414062 -14.628906 13.5 -15.050781 13.5 -15.5 C 13.5 -15.945312 13.414062 -16.363281 13.25 -16.75 C 13.082031 -17.132812 12.859375 -17.472656 12.578125 -17.765625 C 12.296875 -18.054688 11.96875 -18.285156 11.59375 -18.453125 C 11.21875 -18.628906 10.816406 -18.71875 10.390625 -18.71875 L 4.796875 -18.71875 L 4.796875 -12.28125 Z M 10.390625 -12.28125 "/></g></g></g><g fill="#992b91" fill-opacity="1"><g transform="translate(207.339629, 255.156747)"><g><path d="M 1.796875 0 L 1.796875 -21.546875 L 4.984375 -21.546875 L 4.984375 -2.953125 L 14.953125 -2.953125 L 14.953125 0 Z M 1.796875 0 "/></g></g></g><g fill="#992b91" fill-opacity="1"><g transform="translate(226.606138, 255.156747)"><g><path d="M 3.796875 0 L 0.328125 0 L 9.296875 -21.546875 L 12.796875 -21.546875 L 21.765625 0 L 18.328125 0 L 15.5 -6.75 L 6.59375 -6.75 Z M 7.8125 -9.671875 L 14.28125 -9.671875 L 11.0625 -17.4375 Z M 7.8125 -9.671875 "/></g></g></g><g fill="#992b91" fill-opacity="1"><g transform="translate(252.527217, 255.156747)"><g><path d="M 11.859375 -2.640625 C 13.023438 -2.640625 14.109375 -2.921875 15.109375 -3.484375 C 16.117188 -4.054688 16.96875 -4.8125 17.65625 -5.75 L 19.875 -3.609375 C 18.90625 -2.460938 17.722656 -1.523438 16.328125 -0.796875 C 14.941406 -0.0664062 13.453125 0.296875 11.859375 0.296875 C 10.398438 0.296875 9.019531 0.00390625 7.71875 -0.578125 C 6.425781 -1.160156 5.300781 -1.953125 4.34375 -2.953125 C 3.394531 -3.960938 2.640625 -5.140625 2.078125 -6.484375 C 1.523438 -7.835938 1.25 -9.265625 1.25 -10.765625 C 1.25 -12.273438 1.523438 -13.695312 2.078125 -15.03125 C 2.640625 -16.375 3.394531 -17.546875 4.34375 -18.546875 C 5.300781 -19.554688 6.425781 -20.351562 7.71875 -20.9375 C 9.019531 -21.53125 10.398438 -21.828125 11.859375 -21.828125 C 13.210938 -21.828125 14.488281 -21.554688 15.6875 -21.015625 C 16.894531 -20.472656 17.976562 -19.769531 18.9375 -18.90625 L 17.046875 -16.5 C 16.378906 -17.207031 15.597656 -17.789062 14.703125 -18.25 C 13.816406 -18.707031 12.867188 -18.9375 11.859375 -18.9375 C 10.816406 -18.9375 9.84375 -18.71875 8.9375 -18.28125 C 8.039062 -17.84375 7.257812 -17.25 6.59375 -16.5 C 5.925781 -15.75 5.394531 -14.882812 5 -13.90625 C 4.601562 -12.925781 4.40625 -11.878906 4.40625 -10.765625 C 4.40625 -9.648438 4.601562 -8.597656 5 -7.609375 C 5.394531 -6.628906 5.925781 -5.769531 6.59375 -5.03125 C 7.257812 -4.289062 8.039062 -3.707031 8.9375 -3.28125 C 9.84375 -2.851562 10.816406 -2.640625 11.859375 -2.640625 Z M 11.859375 -2.640625 "/></g></g></g><g fill="#992b91" fill-opacity="1"><g transform="translate(277.050541, 255.156747)"><g><path d="M 14.859375 -21.546875 L 14.859375 -18.6875 L 4.859375 -18.6875 L 4.859375 -12.828125 L 13.765625 -12.828125 L 13.765625 -9.875 L 4.859375 -9.875 L 4.859375 -2.953125 L 14.859375 -2.953125 L 14.859375 0 L 1.703125 0 L 1.703125 -21.546875 Z M 14.859375 -21.546875 "/></g></g></g><g clip-path="url(#9310c4d5f7)"><path fill="#fdbf00" d="M 166.855469 13.070312 C 125.667969 13.070312 91.910156 46.824219 91.910156 88.015625 C 91.910156 129.203125 125.667969 162.957031 166.855469 162.957031 C 208.046875 162.957031 241.800781 129.203125 241.800781 88.015625 C 241.800781 46.824219 208.046875 13.070312 166.855469 13.070312 Z M 166.855469 13.070312 " fill-opacity="1" fill-rule="nonzero"/></g><g clip-path="url(#f81cce9a83)"><path fill="#ff9100" d="M 241.800781 88.015625 C 241.800781 129.203125 208.046875 162.957031 166.855469 162.957031 L 166.855469 13.070312 C 208.046875 13.070312 241.800781 46.824219 241.800781 88.015625 Z M 241.800781 88.015625 " fill-opacity="1" fill-rule="nonzero"/></g><path fill="#ffda2d" d="M 166.855469 30.929688 C 135.414062 30.929688 109.769531 56.574219 109.769531 88.015625 C 109.769531 119.457031 135.414062 145.101562 166.855469 145.101562 C 198.296875 145.101562 223.941406 119.457031 223.941406 88.015625 C 223.941406 56.574219 198.296875 30.929688 166.855469 30.929688 Z M 166.855469 30.929688 " fill-opacity="1" fill-rule="nonzero"/><path fill="#fdbf00" d="M 223.941406 88.015625 C 223.941406 119.457031 198.296875 145.101562 166.855469 145.101562 L 166.855469 30.929688 C 198.296875 30.929688 223.941406 56.574219 223.941406 88.015625 Z M 223.941406 88.015625 " fill-opacity="1" fill-rule="nonzero"/><path fill="#ff9100" d="M 176.78125 108.390625 L 183.015625 71.238281 C 184.949219 72.90625 186.792969 74.753906 188.109375 77.035156 L 195.664062 72.644531 C 192.941406 67.988281 189.164062 64.214844 184.597656 61.578125 L 186.703125 49.195312 L 178.011719 47.789062 L 176.253906 58.152344 C 173.96875 57.625 171.511719 57.277344 169.050781 57.277344 C 168.523438 57.277344 168 57.363281 167.472656 57.453125 L 168.875 49.195312 L 166.855469 48.84375 L 160.179688 47.789062 L 158.25 59.296875 C 146.65625 63.6875 138.3125 74.839844 138.3125 88.015625 C 138.3125 97.5 142.792969 105.929688 149.554688 111.550781 L 147.007812 126.832031 L 155.703125 128.238281 L 157.632812 116.46875 C 160.355469 117.613281 163.253906 118.226562 166.242188 118.488281 L 164.835938 126.832031 L 166.855469 127.183594 L 173.53125 128.238281 L 175.199219 118.050781 C 183.71875 116.292969 191.269531 111.023438 195.664062 103.382812 L 188.109375 98.992188 C 185.476562 103.382812 181.433594 106.546875 176.78125 108.390625 Z M 151.398438 100.925781 C 148.675781 97.234375 147.09375 92.84375 147.09375 88.015625 C 147.09375 80.550781 150.871094 74.050781 156.492188 70.011719 Z M 167.644531 109.792969 C 167.382812 109.792969 167.121094 109.792969 166.855469 109.707031 C 164.046875 109.445312 161.5 108.742188 159.128906 107.511719 L 165.976562 66.320312 C 166.242188 66.320312 166.59375 66.234375 166.855469 66.234375 C 167.558594 66.144531 168.261719 66.058594 169.050781 66.058594 C 171.070312 66.058594 173.003906 66.320312 174.847656 66.847656 Z M 167.644531 109.792969 " fill-opacity="1" fill-rule="nonzero"/><path fill="#ff641a" d="M 188.109375 98.992188 L 195.664062 103.382812 C 191.269531 111.023438 183.71875 116.292969 175.199219 118.050781 L 173.53125 128.238281 L 166.855469 127.183594 L 166.855469 109.707031 C 167.121094 109.792969 167.382812 109.792969 167.644531 109.792969 L 174.847656 66.847656 C 173.003906 66.320312 171.070312 66.058594 169.050781 66.058594 C 168.261719 66.058594 167.558594 66.144531 166.855469 66.234375 L 166.855469 48.84375 L 168.875 49.195312 L 167.472656 57.449219 C 167.996094 57.363281 168.523438 57.277344 169.050781 57.277344 C 171.511719 57.277344 173.96875 57.625 176.253906 58.152344 L 178.011719 47.789062 L 186.703125 49.195312 L 184.597656 61.578125 C 189.164062 64.214844 192.941406 67.988281 195.664062 72.644531 L 188.109375 77.035156 C 186.792969 74.753906 184.949219 72.90625 183.015625 71.238281 L 176.78125 108.390625 C 181.433594 106.546875 185.476562 103.382812 188.109375 98.992188 Z M 188.109375 98.992188 " fill-opacity="1" fill-rule="nonzero"/></svg>